<svg width="542" height="348" viewBox="0 0 542 348" fill="none" xmlns="http://www.w3.org/2000/svg">
<path d="M54.5761 257.689C55.2353 286.597 58.4811 316.255 65.3738 345.676C65.5243 346.337 65.6819 346.989 65.8395 347.65H106.136C106.093 347.058 106.05 346.397 106.007 345.676C103.32 303.143 87.829 44.2702 106.351 0C104.731 3.59134 51.4522 122.54 54.5761 257.689Z" fill="#E6E6E6"/>
<path d="M57.5997 345.676C57.9365 346.337 58.2876 346.998 58.6458 347.65H88.8751C88.6458 347.087 88.3807 346.426 88.0727 345.676C83.0786 333.264 68.2972 296.157 54.5761 257.688C39.8305 216.349 26.3029 173.44 27.4421 157.91C27.0911 161.413 16.8881 268.186 57.5997 345.676Z" fill="#E6E6E6"/>
<path d="M423 97.5382L420.463 116.904L418.93 128.658L417.785 137.385L384.163 171.295L374.312 177.582C373.404 178.161 372.382 178.543 371.314 178.702C370.246 178.862 369.157 178.795 368.117 178.506C367.077 178.217 366.111 177.713 365.282 177.027C364.452 176.34 363.779 175.488 363.307 174.525C362.834 173.562 362.573 172.51 362.539 171.439C362.506 170.369 362.702 169.303 363.115 168.313C363.527 167.324 364.146 166.431 364.931 165.696C365.716 164.961 366.65 164.399 367.67 164.047L378.474 160.325L401.242 130.992L402.281 125.259L415.863 79.9033C417.248 77.6043 418.181 85.9872 420.103 84.1087C420.675 84.7396 424.541 77.1277 425.05 77.8006C429.798 84.0597 424.039 89.5899 423 97.5382Z" fill="#A0616A"/>
<path d="M428.857 333.439H418.376V232.318L442.196 231.845L428.857 333.439Z" fill="#A0616A"/>
<path d="M479.356 333.439H489.837V232.318L466.016 231.845L479.356 333.439Z" fill="#A0616A"/>
<path d="M441.72 60.3168C451.455 60.3168 459.347 52.4892 459.347 42.8333C459.347 33.1774 451.455 25.3497 441.72 25.3497C431.985 25.3497 424.093 33.1774 424.093 42.8333C424.093 52.4892 431.985 60.3168 441.72 60.3168Z" fill="#A0616A"/>
<path d="M471.733 67.8773L468.875 84.8883L435.527 86.7784V66.2867C442.407 63.3529 440.859 59.0669 435.527 54.1739L456.965 48.0311C457.767 55.0724 459.03 61.6214 464.938 63.2107C467.532 63.8665 469.825 65.3746 471.444 67.489L471.733 67.8773Z" fill="#A0616A"/>
<path d="M494.124 234.68L459.585 235.861L455.297 209.4L449.342 234.68L414.089 235.625L416.947 189.317L483.167 173.724C491.002 193.08 494.732 213.83 494.124 234.68Z" fill="#2F2E41"/>
<path d="M423.939 347.503L401.639 347.301C400.571 347.563 399.457 347.58 398.382 347.351C397.306 347.123 396.297 346.655 395.431 345.982C394.565 345.31 393.864 344.45 393.383 343.47C392.901 342.489 392.651 341.412 392.651 340.321C392.651 338.967 393.036 337.641 393.763 336.494C394.489 335.348 395.527 334.429 396.757 333.842L401.844 331.415L418.376 320.208L430.286 323.515L432.567 333.697C433.231 336.66 432.7 339.763 431.088 342.343C429.476 344.923 426.91 346.775 423.939 347.503Z" fill="#2F2E41"/>
<path d="M483.965 347.378L461.665 347.175C460.597 347.437 459.484 347.454 458.408 347.226C457.332 346.998 456.323 346.529 455.457 345.857C454.591 345.184 453.891 344.325 453.409 343.344C452.927 342.363 452.677 341.287 452.677 340.196C452.677 338.842 453.063 337.515 453.789 336.369C454.516 335.223 455.554 334.303 456.784 333.716L461.871 331.289L478.403 320.082L490.313 323.39L492.594 333.571C493.258 336.535 492.727 339.638 491.114 342.218C489.502 344.798 486.936 346.65 483.965 347.378Z" fill="#2F2E41"/>
<path d="M434.098 36.365C427.695 40.7762 419.313 34.6679 421.611 27.2783C423.511 21.1648 428.304 15.1936 439.814 15.4266C463.158 15.8991 466.174 39.0778 458.473 48.2797C458.473 48.2797 457.441 33.8552 455.059 36.2178C452.677 38.5805 448.866 37.1629 448.866 37.1629C448.866 37.1629 450.771 28.1848 441.72 31.9651C439.029 33.1584 436.474 34.6334 434.098 36.365Z" fill="#2F2E41"/>
<path d="M485.072 177.504C465.983 192.856 443.407 198.401 416.471 191.68C423.314 157.481 421.997 121.125 416.471 83.6547C416.471 81.1906 417.169 78.776 418.485 76.6862C419.802 74.5964 421.684 72.9156 423.916 71.8352L436.003 65.9872C446.731 81.1014 456.605 77.246 466.016 63.152L479.352 67.9914C481.167 68.65 482.733 69.8477 483.837 71.4212C484.941 72.9947 485.528 74.8675 485.52 76.7843C483.701 114.803 482.582 150.958 485.072 177.504Z" fill="#00B0FF"/>
<path d="M426.95 134.504L421.008 133.291L418.93 132.864L402.281 129.464L394.558 127.887L407.624 90.0665C409.246 85.3793 411.94 81.1284 415.496 77.6464C418.261 74.941 421.495 72.7519 425.042 71.1841V71.2892L426.95 134.504Z" fill="#00B0FF"/>
<path d="M489.36 172.779L483.797 188.46C483.387 189.618 483.25 190.853 483.398 192.072C483.545 193.291 483.974 194.459 484.65 195.487C485.326 196.515 486.231 197.375 487.296 198.001C488.36 198.626 489.556 199.001 490.789 199.095C491.85 199.176 492.917 199.048 493.928 198.718C494.939 198.389 495.874 197.864 496.679 197.174C497.485 196.485 498.145 195.644 498.622 194.7C499.098 193.757 499.382 192.729 499.456 191.676L500.793 172.779L499.364 120.801L484.596 122.218L489.36 172.779Z" fill="#A0616A"/>
<path d="M508.416 119.855L476.973 128.833L476.497 66.9323C481.501 67.208 486.294 69.0279 490.204 72.1375C494.114 75.2471 496.947 79.491 498.307 84.2758L508.416 119.855Z" fill="#00B0FF"/>
<path d="M110.528 96.2528C109.685 96.2537 108.877 96.5863 108.281 97.1776C107.685 97.7689 107.349 98.5707 107.349 99.4069V165.292C107.349 166.128 107.685 166.93 108.281 167.521C108.877 168.113 109.685 168.445 110.528 168.446H368.455C369.299 168.445 370.107 168.113 370.703 167.521C371.299 166.93 371.634 166.128 371.635 165.292V99.4069C371.634 98.5707 371.299 97.7689 370.703 97.1776C370.107 96.5863 369.299 96.2537 368.455 96.2528H110.528Z" fill="#00B0FF"/>
<path d="M368.455 347.878H110.528C109.123 347.877 107.776 347.322 106.783 346.337C105.789 345.351 105.23 344.015 105.229 342.621V100.108C105.23 98.7141 105.789 97.3779 106.783 96.3923C107.776 95.4068 109.123 94.8525 110.528 94.851H368.455C369.861 94.8525 371.208 95.4068 372.201 96.3923C373.195 97.3779 373.754 98.7141 373.755 100.108V342.621C373.754 344.015 373.195 345.351 372.201 346.337C371.208 347.322 369.861 347.877 368.455 347.878ZM110.528 96.9537C109.685 96.9546 108.877 97.2872 108.281 97.8785C107.685 98.4698 107.349 99.2715 107.348 100.108V342.621C107.349 343.458 107.685 344.259 108.281 344.851C108.877 345.442 109.685 345.775 110.528 345.775H368.455C369.298 345.775 370.107 345.442 370.703 344.851C371.299 344.259 371.634 343.458 371.635 342.621V100.108C371.634 99.2715 371.299 98.4698 370.703 97.8785C370.107 97.2872 369.298 96.9546 368.455 96.9537H110.528Z" fill="#3F3D56"/>
<path d="M193.46 195.569C192.358 195.587 191.307 196.034 190.534 196.813C189.761 197.593 189.327 198.643 189.327 199.736C189.327 200.83 189.761 201.88 190.534 202.659C191.307 203.439 192.358 203.886 193.46 203.904H337.677C338.791 203.921 339.866 203.498 340.666 202.73C341.466 201.961 341.925 200.909 341.944 199.805C341.962 198.7 341.537 197.633 340.763 196.839C339.989 196.045 338.929 195.588 337.815 195.569C337.769 195.568 337.723 195.568 337.677 195.569H193.46Z" fill="#E6E6E6"/>
<path d="M193.46 217.297C192.358 217.315 191.307 217.762 190.534 218.541C189.761 219.321 189.327 220.371 189.327 221.464C189.327 222.558 189.761 223.608 190.534 224.387C191.307 225.167 192.358 225.614 193.46 225.632H337.677C338.791 225.649 339.866 225.227 340.666 224.458C341.466 223.689 341.925 222.637 341.944 221.533C341.962 220.428 341.537 219.362 340.763 218.567C339.989 217.773 338.929 217.316 337.815 217.297C337.769 217.296 337.723 217.296 337.677 217.297H193.46Z" fill="#E6E6E6"/>
<path d="M193.46 239.025C192.358 239.043 191.307 239.49 190.534 240.269C189.761 241.049 189.327 242.099 189.327 243.192C189.327 244.286 189.761 245.336 190.534 246.115C191.307 246.895 192.358 247.342 193.46 247.36H337.677C338.791 247.377 339.866 246.955 340.666 246.186C341.466 245.417 341.925 244.365 341.944 243.261C341.962 242.156 341.537 241.09 340.763 240.295C339.989 239.501 338.929 239.044 337.815 239.025C337.769 239.024 337.723 239.024 337.677 239.025H193.46Z" fill="#E6E6E6"/>
<path d="M193.46 260.753C192.358 260.771 191.307 261.218 190.534 261.998C189.761 262.777 189.327 263.827 189.327 264.921C189.327 266.014 189.761 267.064 190.534 267.843C191.307 268.623 192.358 269.07 193.46 269.088H337.677C338.791 269.105 339.866 268.683 340.666 267.914C341.466 267.146 341.925 266.093 341.944 264.989C341.962 263.884 341.537 262.818 340.763 262.024C339.989 261.229 338.929 260.772 337.815 260.753C337.769 260.752 337.723 260.752 337.677 260.753H193.46Z" fill="#E6E6E6"/>
<path d="M193.46 282.481C192.358 282.499 191.307 282.946 190.534 283.726C189.761 284.505 189.327 285.555 189.327 286.649C189.327 287.742 189.761 288.792 190.534 289.572C191.307 290.351 192.358 290.798 193.46 290.816H337.677C338.791 290.833 339.866 290.411 340.666 289.642C341.466 288.874 341.925 287.821 341.944 286.717C341.962 285.612 341.537 284.546 340.763 283.752C339.989 282.957 338.929 282.5 337.815 282.481C337.769 282.48 337.723 282.48 337.677 282.481H193.46Z" fill="#E6E6E6"/>
<path d="M193.46 304.209C192.358 304.227 191.307 304.674 190.534 305.454C189.761 306.233 189.327 307.283 189.327 308.377C189.327 309.47 189.761 310.52 190.534 311.3C191.307 312.079 192.358 312.526 193.46 312.544H337.677C338.791 312.561 339.866 312.139 340.666 311.37C341.466 310.602 341.925 309.55 341.944 308.445C341.962 307.341 341.537 306.274 340.763 305.48C339.989 304.685 338.929 304.228 337.815 304.209C337.769 304.208 337.723 304.208 337.677 304.209H193.46Z" fill="#E6E6E6"/>
<path d="M160.995 132.346C160.995 135.673 160 138.926 158.136 141.692C156.273 144.458 153.624 146.614 150.525 147.888C147.426 149.161 144.016 149.494 140.726 148.845C137.437 148.196 134.415 146.594 132.043 144.241C129.671 141.888 128.056 138.891 127.401 135.628C126.747 132.365 127.083 128.983 128.366 125.909C129.65 122.835 131.824 120.208 134.613 118.36C137.402 116.511 140.681 115.525 144.035 115.525C146.265 115.515 148.474 115.944 150.536 116.786C152.598 117.628 154.472 118.866 156.049 120.43C157.625 121.994 158.874 123.853 159.723 125.898C160.572 127.943 161.004 130.135 160.995 132.346Z" fill="white"/>
<path d="M174.45 119.07C173.348 119.088 172.297 119.535 171.524 120.315C170.751 121.095 170.318 122.144 170.318 123.238C170.318 124.331 170.751 125.381 171.524 126.16C172.297 126.94 173.348 127.387 174.45 127.405H279.801C280.913 127.42 281.986 126.997 282.784 126.228C283.582 125.46 284.041 124.409 284.059 123.306C284.077 122.203 283.654 121.138 282.882 120.344C282.109 119.55 281.051 119.092 279.939 119.07C279.893 119.069 279.847 119.069 279.801 119.07H174.45Z" fill="white"/>
<path d="M174.45 137.294C173.348 137.312 172.297 137.759 171.524 138.539C170.751 139.318 170.318 140.368 170.318 141.461C170.318 142.555 170.751 143.604 171.524 144.384C172.297 145.163 173.348 145.611 174.45 145.629H347.64C348.752 145.644 349.824 145.22 350.623 144.452C351.421 143.683 351.879 142.633 351.897 141.529C351.916 140.426 351.492 139.361 350.72 138.567C349.948 137.773 348.89 137.315 347.778 137.294C347.732 137.293 347.686 137.293 347.64 137.294H174.45Z" fill="white"/>
<path d="M166.416 207.468C164.879 207.468 163.376 207.016 162.097 206.169C160.819 205.322 159.823 204.118 159.234 202.709C158.646 201.3 158.492 199.75 158.792 198.254C159.092 196.759 159.832 195.385 160.919 194.307C162.007 193.228 163.392 192.494 164.899 192.197C166.407 191.899 167.97 192.052 169.391 192.635C170.811 193.219 172.025 194.207 172.879 195.475C173.733 196.743 174.189 198.233 174.189 199.758C174.187 201.802 173.367 203.762 171.91 205.208C170.453 206.653 168.477 207.466 166.416 207.468ZM166.416 193.45C165.158 193.45 163.928 193.82 162.883 194.513C161.837 195.206 161.022 196.192 160.54 197.344C160.059 198.497 159.933 199.765 160.178 200.989C160.424 202.213 161.029 203.337 161.919 204.219C162.808 205.101 163.941 205.702 165.175 205.945C166.409 206.189 167.688 206.064 168.85 205.586C170.012 205.109 171.005 204.3 171.704 203.263C172.403 202.226 172.776 201.006 172.776 199.758C172.774 198.086 172.103 196.483 170.911 195.3C169.719 194.117 168.102 193.452 166.416 193.45Z" fill="#E6E6E6"/>
<path d="M166.416 229.196C164.879 229.196 163.376 228.744 162.097 227.897C160.819 227.05 159.823 225.846 159.234 224.437C158.646 223.028 158.492 221.478 158.792 219.982C159.092 218.487 159.832 217.113 160.919 216.035C162.007 214.956 163.392 214.222 164.899 213.925C166.407 213.627 167.97 213.78 169.391 214.363C170.811 214.947 172.025 215.935 172.879 217.203C173.733 218.471 174.189 219.962 174.189 221.486C174.187 223.531 173.367 225.49 171.91 226.936C170.453 228.381 168.477 229.194 166.416 229.196ZM166.416 215.178C165.158 215.178 163.928 215.548 162.883 216.241C161.837 216.935 161.022 217.92 160.54 219.072C160.059 220.225 159.933 221.493 160.178 222.717C160.424 223.941 161.029 225.065 161.919 225.947C162.808 226.829 163.941 227.43 165.175 227.673C166.409 227.917 167.688 227.792 168.85 227.314C170.012 226.837 171.005 226.028 171.704 224.991C172.403 223.954 172.776 222.734 172.776 221.486C172.774 219.814 172.103 218.211 170.911 217.028C169.719 215.845 168.102 215.18 166.416 215.178Z" fill="#E6E6E6"/>
<path d="M166.416 250.903C164.879 250.903 163.376 250.45 162.097 249.603C160.819 248.756 159.823 247.552 159.234 246.143C158.646 244.734 158.492 243.184 158.792 241.688C159.092 240.193 159.832 238.819 160.919 237.741C162.007 236.663 163.392 235.928 164.899 235.631C166.407 235.333 167.97 235.486 169.391 236.07C170.811 236.653 172.025 237.641 172.879 238.909C173.733 240.177 174.189 241.668 174.189 243.193C174.187 245.237 173.367 247.196 171.91 248.642C170.453 250.087 168.477 250.9 166.416 250.903ZM166.416 236.884C165.158 236.884 163.928 237.254 162.883 237.948C161.837 238.641 161.022 239.626 160.54 240.779C160.059 241.931 159.933 243.2 160.178 244.423C160.424 245.647 161.029 246.771 161.919 247.653C162.808 248.535 163.941 249.136 165.175 249.38C166.409 249.623 167.688 249.498 168.85 249.021C170.012 248.543 171.005 247.735 171.704 246.697C172.403 245.66 172.776 244.44 172.776 243.193C172.774 241.52 172.103 239.917 170.911 238.734C169.719 237.552 168.102 236.886 166.416 236.884Z" fill="#E6E6E6"/>
<path d="M166.416 272.631C164.879 272.631 163.376 272.179 162.097 271.331C160.819 270.484 159.823 269.28 159.234 267.871C158.646 266.462 158.492 264.912 158.792 263.417C159.092 261.921 159.832 260.547 160.919 259.469C162.007 258.391 163.392 257.656 164.899 257.359C166.407 257.061 167.97 257.214 169.391 257.798C170.811 258.381 172.025 259.369 172.879 260.637C173.733 261.905 174.189 263.396 174.189 264.921C174.187 266.965 173.367 268.925 171.91 270.37C170.453 271.815 168.477 272.628 166.416 272.631ZM166.416 258.613C165.158 258.613 163.928 258.983 162.883 259.676C161.837 260.369 161.022 261.354 160.54 262.507C160.059 263.659 159.933 264.928 160.178 266.151C160.424 267.375 161.029 268.499 161.919 269.381C162.808 270.263 163.941 270.864 165.175 271.108C166.409 271.351 167.688 271.226 168.85 270.749C170.012 270.271 171.005 269.463 171.704 268.425C172.403 267.388 172.776 266.168 172.776 264.921C172.774 263.248 172.103 261.645 170.911 260.462C169.719 259.28 168.102 258.614 166.416 258.613Z" fill="#E6E6E6"/>
<path d="M166.416 294.359C164.879 294.359 163.376 293.907 162.097 293.059C160.819 292.212 159.823 291.008 159.234 289.599C158.646 288.19 158.492 286.64 158.792 285.145C159.092 283.649 159.832 282.275 160.919 281.197C162.007 280.119 163.392 279.384 164.899 279.087C166.407 278.789 167.97 278.942 169.391 279.526C170.811 280.109 172.025 281.097 172.879 282.365C173.733 283.633 174.189 285.124 174.189 286.649C174.187 288.693 173.367 290.653 171.91 292.098C170.453 293.543 168.477 294.356 166.416 294.359ZM166.416 280.341C165.158 280.341 163.928 280.711 162.883 281.404C161.837 282.097 161.022 283.082 160.54 284.235C160.059 285.387 159.933 286.656 160.178 287.879C160.424 289.103 161.029 290.227 161.919 291.109C162.808 291.992 163.941 292.592 165.175 292.836C166.409 293.079 167.688 292.954 168.85 292.477C170.012 291.999 171.005 291.191 171.704 290.153C172.403 289.116 172.776 287.896 172.776 286.649C172.774 284.976 172.103 283.373 170.911 282.19C169.719 281.008 168.102 280.343 166.416 280.341Z" fill="#E6E6E6"/>
<path d="M166.416 316.087C164.879 316.087 163.376 315.635 162.097 314.788C160.819 313.94 159.823 312.736 159.234 311.327C158.646 309.919 158.492 308.368 158.792 306.873C159.092 305.377 159.832 304.003 160.919 302.925C162.007 301.847 163.392 301.113 164.899 300.815C166.407 300.518 167.97 300.67 169.391 301.254C170.811 301.837 172.025 302.826 172.879 304.094C173.733 305.361 174.189 306.852 174.189 308.377C174.187 310.421 173.367 312.381 171.91 313.826C170.453 315.272 168.477 316.085 166.416 316.087ZM166.416 302.069C165.158 302.069 163.928 302.439 162.883 303.132C161.837 303.825 161.022 304.81 160.54 305.963C160.059 307.116 159.933 308.384 160.178 309.608C160.424 310.831 161.029 311.955 161.919 312.837C162.808 313.72 163.941 314.32 165.175 314.564C166.409 314.807 167.688 314.682 168.85 314.205C170.012 313.727 171.005 312.919 171.704 311.882C172.403 310.844 172.776 309.625 172.776 308.377C172.774 306.704 172.103 305.101 170.911 303.918C169.719 302.736 168.102 302.071 166.416 302.069Z" fill="#E6E6E6"/>
<path d="M166.416 203.263C168.367 203.263 169.949 201.694 169.949 199.758C169.949 197.823 168.367 196.254 166.416 196.254C164.465 196.254 162.883 197.823 162.883 199.758C162.883 201.694 164.465 203.263 166.416 203.263Z" fill="#00B0FF"/>
<path d="M166.416 246.719C168.367 246.719 169.949 245.15 169.949 243.215C169.949 241.279 168.367 239.71 166.416 239.71C164.465 239.71 162.883 241.279 162.883 243.215C162.883 245.15 164.465 246.719 166.416 246.719Z" fill="#00B0FF"/>
<path d="M166.416 268.447C168.367 268.447 169.949 266.878 169.949 264.943C169.949 263.007 168.367 261.438 166.416 261.438C164.465 261.438 162.883 263.007 162.883 264.943C162.883 266.878 164.465 268.447 166.416 268.447Z" fill="#00B0FF"/>
<path d="M542 346.598H0V348H542V346.598Z" fill="#2F2E41"/>
</svg>
