<svg width="180" height="27" viewBox="0 0 180 27" fill="none" xmlns="http://www.w3.org/2000/svg">
<path d="M12.1523 4.64844V15.9688C12.1374 17.6683 11.6694 18.971 10.7485 19.877C9.82764 20.7754 8.50618 21.2246 6.78418 21.2246C5.03223 21.2246 3.69206 20.7679 2.76367 19.8545C1.84277 18.9411 1.38232 17.6196 1.38232 15.8901V4.64844H4.70654V15.9014C4.70654 16.8298 4.85628 17.4924 5.15576 17.8892C5.45524 18.286 5.99805 18.4844 6.78418 18.4844C7.57031 18.4844 8.10938 18.2897 8.40137 17.9004C8.69336 17.5036 8.8431 16.856 8.85059 15.9575V4.64844H12.1523ZM21.5635 16.71C21.5635 16.0436 21.3913 15.542 21.0469 15.2051C20.71 14.8607 20.0923 14.505 19.1938 14.1382C17.5542 13.5168 16.375 12.7905 15.6562 11.9595C14.9375 11.1209 14.5781 10.1326 14.5781 8.99463C14.5781 7.61702 15.0648 6.5127 16.0381 5.68164C17.0189 4.8431 18.2617 4.42383 19.7666 4.42383C20.7699 4.42383 21.6646 4.63721 22.4507 5.06396C23.2368 5.48324 23.8395 6.07845 24.2588 6.84961C24.6855 7.62077 24.8989 8.49674 24.8989 9.47754H21.6084C21.6084 8.71387 21.4437 8.13363 21.1143 7.73682C20.7923 7.33252 20.3244 7.13037 19.7104 7.13037C19.134 7.13037 18.6847 7.30257 18.3628 7.64697C18.0409 7.98389 17.8799 8.44059 17.8799 9.01709C17.8799 9.46631 18.0596 9.87435 18.4189 10.2412C18.7783 10.6006 19.4147 10.9749 20.3281 11.3643C21.9229 11.9408 23.0796 12.6483 23.7983 13.4868C24.5246 14.3254 24.8877 15.3923 24.8877 16.6875C24.8877 18.11 24.4347 19.2218 23.5288 20.0229C22.6229 20.8241 21.3913 21.2246 19.834 21.2246C18.7783 21.2246 17.8162 21.0075 16.9478 20.5732C16.0793 20.139 15.3979 19.5176 14.9038 18.709C14.4172 17.9004 14.1738 16.9458 14.1738 15.8452H17.4868C17.4868 16.7886 17.6702 17.4736 18.0371 17.9004C18.404 18.3271 19.0029 18.5405 19.834 18.5405C20.987 18.5405 21.5635 17.9303 21.5635 16.71ZM35.5229 13.9248H30.3794V18.2598H36.4663V21H27.0776V4.64844H36.4438V7.3999H30.3794V11.2632H35.5229V13.9248ZM43.3281 15.0254H41.6885V21H38.3867V4.64844H43.6538C45.3084 4.64844 46.585 5.07894 47.4834 5.93994C48.3893 6.79346 48.8423 8.01009 48.8423 9.58984C48.8423 11.7611 48.0524 13.2809 46.4727 14.1494L49.3364 20.8428V21H45.7876L43.3281 15.0254ZM41.6885 12.2739H43.564C44.2228 12.2739 44.717 12.0568 45.0464 11.6226C45.3758 11.1808 45.5405 10.5931 45.5405 9.85938C45.5405 8.21973 44.9004 7.3999 43.6201 7.3999H41.6885V12.2739Z" fill="black"/>
<path d="M56.624 15.0254H54.9844V21H51.6826V4.64844H56.9497C58.6043 4.64844 59.8809 5.07894 60.7793 5.93994C61.6852 6.79346 62.1382 8.01009 62.1382 9.58984C62.1382 11.7611 61.3483 13.2809 59.7686 14.1494L62.6323 20.8428V21H59.0835L56.624 15.0254ZM54.9844 12.2739H56.8599C57.5187 12.2739 58.0129 12.0568 58.3423 11.6226C58.6717 11.1808 58.8364 10.5931 58.8364 9.85938C58.8364 8.21973 58.1963 7.3999 56.916 7.3999H54.9844V12.2739ZM72.8521 13.9248H67.7085V18.2598H73.7954V21H64.4067V4.64844H73.7729V7.3999H67.7085V11.2632H72.8521V13.9248ZM86.8228 19.147C86.1864 19.8358 85.404 20.3561 84.4756 20.708C83.5547 21.0524 82.5439 21.2246 81.4434 21.2246C79.5641 21.2246 78.1042 20.6444 77.0635 19.4839C76.0228 18.3159 75.4875 16.6201 75.4575 14.3965V11.4541C75.4575 9.20052 75.9479 7.46729 76.9287 6.25439C77.917 5.03402 79.3545 4.42383 81.2412 4.42383C83.0156 4.42383 84.3521 4.86182 85.2505 5.73779C86.1564 6.61377 86.6805 7.98763 86.8228 9.85938H83.6108C83.521 8.81868 83.3039 8.11117 82.9595 7.73682C82.6151 7.35498 82.076 7.16406 81.3423 7.16406C80.4513 7.16406 79.8037 7.48975 79.3994 8.14111C78.9951 8.79248 78.7855 9.82943 78.7705 11.252V14.2168C78.7705 15.7067 78.9914 16.7923 79.4331 17.4736C79.8823 18.1475 80.616 18.4844 81.6343 18.4844C82.2856 18.4844 82.8135 18.3534 83.2178 18.0913L83.5098 17.8892V14.8906H81.1963V12.3975H86.8228V19.147ZM92.6064 21H89.3047V4.64844H92.6064V21ZM102.287 16.71C102.287 16.0436 102.115 15.542 101.771 15.2051C101.434 14.8607 100.816 14.505 99.9175 14.1382C98.2778 13.5168 97.0986 12.7905 96.3799 11.9595C95.6611 11.1209 95.3018 10.1326 95.3018 8.99463C95.3018 7.61702 95.7884 6.5127 96.7617 5.68164C97.7425 4.8431 98.9854 4.42383 100.49 4.42383C101.493 4.42383 102.388 4.63721 103.174 5.06396C103.96 5.48324 104.563 6.07845 104.982 6.84961C105.409 7.62077 105.623 8.49674 105.623 9.47754H102.332C102.332 8.71387 102.167 8.13363 101.838 7.73682C101.516 7.33252 101.048 7.13037 100.434 7.13037C99.8576 7.13037 99.4084 7.30257 99.0864 7.64697C98.7645 7.98389 98.6035 8.44059 98.6035 9.01709C98.6035 9.46631 98.7832 9.87435 99.1426 10.2412C99.502 10.6006 100.138 10.9749 101.052 11.3643C102.646 11.9408 103.803 12.6483 104.522 13.4868C105.248 14.3254 105.611 15.3923 105.611 16.6875C105.611 18.11 105.158 19.2218 104.252 20.0229C103.347 20.8241 102.115 21.2246 100.558 21.2246C99.502 21.2246 98.5399 21.0075 97.6714 20.5732C96.8029 20.139 96.1216 19.5176 95.6274 18.709C95.1408 17.9004 94.8975 16.9458 94.8975 15.8452H98.2104C98.2104 16.7886 98.3939 17.4736 98.7607 17.9004C99.1276 18.3271 99.7266 18.5405 100.558 18.5405C101.711 18.5405 102.287 17.9303 102.287 16.71ZM118.392 7.3999H114.349V21H111.036V7.3999H107.06V4.64844H118.392V7.3999ZM125.242 15.0254H123.603V21H120.301V4.64844H125.568C127.222 4.64844 128.499 5.07894 129.397 5.93994C130.303 6.79346 130.756 8.01009 130.756 9.58984C130.756 11.7611 129.966 13.2809 128.387 14.1494L131.25 20.8428V21H127.702L125.242 15.0254ZM123.603 12.2739H125.478C126.137 12.2739 126.631 12.0568 126.96 11.6226C127.29 11.1808 127.455 10.5931 127.455 9.85938C127.455 8.21973 126.814 7.3999 125.534 7.3999H123.603V12.2739ZM140.83 17.6533H136.327L135.451 21H131.958L137.068 4.64844H140.089L145.232 21H141.706L140.83 17.6533ZM137.045 14.9019H140.1L138.573 9.07324L137.045 14.9019ZM150.219 21H146.917V4.64844H150.219V21ZM164.504 14.2954C164.504 16.4891 163.984 18.1924 162.943 19.4053C161.91 20.6182 160.472 21.2246 158.63 21.2246C156.796 21.2246 155.355 20.6257 154.307 19.4277C153.258 18.2223 152.727 16.5378 152.712 14.374V11.5776C152.712 9.33154 153.232 7.57959 154.273 6.32178C155.314 5.05648 156.759 4.42383 158.608 4.42383C160.427 4.42383 161.861 5.04525 162.909 6.28809C163.957 7.52344 164.489 9.26042 164.504 11.499V14.2954ZM161.191 11.5552C161.191 10.0802 160.981 8.9834 160.562 8.26465C160.143 7.5459 159.491 7.18652 158.608 7.18652C157.732 7.18652 157.084 7.53467 156.665 8.23096C156.246 8.91976 156.029 9.97168 156.014 11.3867V14.2954C156.014 15.7254 156.227 16.7811 156.654 17.4624C157.081 18.1362 157.739 18.4731 158.63 18.4731C159.491 18.4731 160.132 18.1437 160.551 17.4849C160.97 16.8185 161.183 15.7891 161.191 14.3965V11.5552ZM178.306 21H175.004L170.175 10.2749V21H166.874V4.64844H170.175L175.016 15.3848V4.64844H178.306V21Z" fill="#2D9CDB"/>
</svg>
