<svg width="383" height="450" viewBox="0 0 383 450" fill="none" xmlns="http://www.w3.org/2000/svg">
<path d="M159.854 435.102H147.594L141.762 377.938L159.856 377.939L159.854 435.102Z" fill="#FFB8B8"/>
<path d="M123.95 448.862L162.48 448.864L162.481 430.868L138.837 430.867C136.882 430.867 134.946 431.332 133.14 432.236C131.334 433.14 129.693 434.466 128.31 436.137C126.928 437.808 125.831 439.792 125.083 441.975C124.335 444.158 123.95 446.498 123.95 448.862Z" fill="#2F2E41"/>
<path d="M272.997 426.6L260.991 429.6L245.703 375.049L263.422 370.62L272.997 426.6Z" fill="#FFB8B8"/>
<path d="M240.142 448.864L277.875 439.433L274.86 421.81L251.706 427.597C247.84 428.563 244.449 431.347 242.281 435.335C240.112 439.323 239.343 444.19 240.142 448.864L240.142 448.864Z" fill="#2F2E41"/>
<path d="M239.742 242.676C240.776 241.413 241.568 239.891 242.063 238.217C242.558 236.544 242.743 234.76 242.605 232.99C242.468 231.221 242.011 229.51 241.267 227.977C240.523 226.444 239.511 225.127 238.3 224.119L247.813 182.48L230.149 189.403L223.823 227.882C222.556 230.453 222.114 233.496 222.579 236.434C223.044 239.373 224.385 242.003 226.347 243.827C228.309 245.65 230.757 246.54 233.225 246.328C235.694 246.116 238.013 244.817 239.742 242.676Z" fill="#FFB8B8"/>
<path d="M163.436 414.143C164.506 414.144 165.541 413.685 166.356 412.846C167.17 412.008 167.711 410.846 167.88 409.569L190.728 257.378C190.778 256.989 190.931 256.63 191.164 256.356C191.397 256.081 191.697 255.906 192.02 255.855C192.343 255.805 192.67 255.883 192.953 256.078C193.236 256.273 193.459 256.573 193.588 256.934L244.489 399.297C244.942 400.544 245.763 401.542 246.792 402.097C247.82 402.651 248.983 402.723 250.053 402.296L267.933 395.034C268.516 394.797 269.053 394.418 269.51 393.921C269.967 393.424 270.335 392.818 270.591 392.142C270.848 391.466 270.986 390.734 270.999 389.991C271.012 389.248 270.899 388.509 270.666 387.821L246.057 314.949L225.513 205L225.368 204.867C224.972 204.503 185.449 168.842 158.441 197.367C133.726 223.47 138.326 372.631 139.499 402.267C139.541 403.438 139.897 404.561 140.514 405.466C141.131 406.37 141.975 407.007 142.918 407.281L162.344 413.982C162.701 414.089 163.068 414.142 163.436 414.143Z" fill="#2F2E41"/>
<path d="M202.166 76.0345C188.601 76.0345 177.605 62.7417 177.605 46.3441C177.605 29.9466 188.601 16.6537 202.166 16.6537C215.73 16.6537 226.727 29.9466 226.727 46.3441C226.727 62.7417 215.73 76.0345 202.166 76.0345Z" fill="#FFB8B8"/>
<path d="M154.41 229.379C155.444 228.116 156.236 226.594 156.731 224.92C157.225 223.247 157.41 221.462 157.273 219.693C157.135 217.924 156.679 216.213 155.935 214.68C155.191 213.147 154.178 211.83 152.968 210.821L162.481 169.182L144.817 176.106L138.491 214.585C137.224 217.156 136.781 220.198 137.247 223.137C137.712 226.076 139.052 228.706 141.015 230.53C142.977 232.353 145.424 233.243 147.893 233.031C150.362 232.819 152.681 231.52 154.41 229.379V229.379Z" fill="#FFB8B8"/>
<path d="M229.388 217.51C229.729 217.51 230.066 217.429 230.382 217.272C240.754 212.176 232.483 112.69 232.126 108.457L232.087 108.276C231.83 107.568 231.571 106.875 231.309 106.196C228.754 99.3274 224.473 93.6065 219.075 89.8456C213.677 86.0847 207.436 84.475 201.238 85.245C194.94 85.8301 188.947 88.7642 184.088 93.6422C179.228 98.5201 175.74 105.101 174.107 112.478L154.888 197.6C154.683 198.504 154.675 199.457 154.865 200.366C155.054 201.276 155.436 202.11 155.971 202.788C156.506 203.467 157.178 203.966 157.92 204.239C158.662 204.511 159.45 204.546 160.207 204.341C175.16 200.304 211.399 193.137 224.909 213.731C226.568 216.262 228.044 217.51 229.388 217.51Z" fill="#00B0FF"/>
<path d="M154.914 209.338C155.407 209.337 155.897 209.239 156.363 209.047C156.939 208.815 157.469 208.442 157.921 207.954C158.374 207.465 158.739 206.87 158.994 206.205L175.721 163.099L191.996 106.466C192.693 104.031 192.795 101.405 192.291 98.9018C191.787 96.3984 190.697 94.1235 189.152 92.3487C187.875 90.8856 186.329 89.8109 184.64 89.2135C182.952 88.6162 181.17 88.5133 179.442 88.9135C177.714 89.3137 176.09 90.2054 174.704 91.5149C173.318 92.8243 172.21 94.5139 171.471 96.4439L149.814 153.006L132.916 189.902C132.625 190.538 132.443 191.237 132.379 191.959C132.315 192.682 132.372 193.412 132.545 194.107C132.718 194.803 133.005 195.449 133.389 196.008C133.772 196.567 134.244 197.028 134.777 197.363L152.844 208.721C153.483 209.125 154.193 209.337 154.914 209.338Z" fill="#00B0FF"/>
<path d="M228 219.935C228.162 219.935 228.323 219.924 228.484 219.903L248.735 217.307C249.338 217.23 249.922 217.006 250.451 216.649C250.981 216.292 251.446 215.809 251.817 215.23C252.189 214.65 252.459 213.986 252.613 213.277C252.767 212.567 252.8 211.828 252.712 211.103L246.959 164.001L234.648 105.925C234.117 103.429 233.002 101.172 231.438 99.4221C229.874 97.672 227.926 96.5033 225.827 96.0555C224.094 95.6883 222.314 95.825 220.633 96.4544C218.953 97.0838 217.421 98.1878 216.163 99.6751C214.906 101.162 213.959 102.99 213.402 105.007C212.845 107.024 212.693 109.173 212.959 111.275L220.751 172.886L223.524 214.926C223.614 216.288 224.124 217.558 224.953 218.486C225.782 219.414 226.87 219.931 228 219.935V219.935Z" fill="#00B0FF"/>
<path d="M198.285 30.3785L177.874 28.5816C177.185 22.9996 178.065 17.2998 180.373 12.3939C182.681 7.48792 186.283 3.65935 190.604 1.5206C199.304 -2.47442 210.102 1.96317 213.444 8.32768C217.845 7.86591 222.276 8.62362 226.398 10.5432C230.52 12.4628 234.226 15.4937 237.234 19.4052C240.241 23.3168 242.471 28.0061 243.754 33.1162C245.036 38.2264 245.338 43.6229 244.636 48.8952C243.933 54.1675 242.245 59.1766 239.7 63.5416C237.155 67.9066 233.82 71.5125 229.949 74.0848C226.078 76.6572 221.772 78.1283 217.359 78.3862C212.947 78.6442 208.544 77.6822 204.485 75.5734C212.909 61.281 208.584 38.5656 198.285 30.3785Z" fill="#2F2E41"/>
<path d="M235.406 16.7496C241.739 9.75426 249.481 4.16249 257.999 2.92708C266.517 1.69167 275.824 5.46458 280.728 13.9741C285.632 22.4836 284.778 35.7107 277.88 41.8767C275.047 44.4085 272.898 47.8978 271.705 51.9042C270.511 55.9107 270.326 60.2548 271.173 64.3883C272.02 68.5217 273.861 72.2594 276.463 75.1294C279.066 77.9994 282.313 79.8732 285.796 80.5143C298.461 82.8461 307.997 98.6216 307.049 114.066C306.101 129.51 295.632 142.975 283.146 146.44C270.659 149.905 256.997 143.946 248.282 132.594C239.567 121.243 235.665 105.127 236.658 89.6864C237.651 74.2463 243.258 59.5369 251.32 47.5003C253.509 44.2318 251.864 39.049 249.052 36.5741C246.239 34.0993 242.657 33.4078 239.365 32.049C236.073 30.6902 232.675 28.1307 231.916 24.0267C231.157 19.9227 235.006 15.1301 235.406 16.7496Z" fill="#2F2E41"/>
<path d="M1 450H382C382.265 450 382.52 449.873 382.707 449.646C382.895 449.419 383 449.112 383 448.791C383 448.471 382.895 448.163 382.707 447.936C382.52 447.71 382.265 447.582 382 447.582H1C0.734772 447.582 0.480438 447.71 0.292908 447.936C0.105377 448.163 0 448.471 0 448.791C0 449.112 0.105377 449.419 0.292908 449.646C0.480438 449.873 0.734772 450 1 450Z" fill="#CCCCCC"/>
</svg>
